<svg id="Layer_1" data-name="Layer 1" xmlns="http://www.w3.org/2000/svg" xmlns:xlink="http://www.w3.org/1999/xlink" viewBox="0 0 1920 1080"><defs><style>.cls-1{fill:none;}.cls-2{clip-path:url(#clip-path);}.cls-3{fill:url(#linear-gradient);}.cls-4{fill:url(#linear-gradient-2);}.cls-5{fill:url(#linear-gradient-3);}.cls-6{fill:url(#linear-gradient-4);}</style><clipPath id="clip-path"><rect class="cls-1" width="1920" height="1080"/></clipPath><linearGradient id="linear-gradient" x1="717.25" y1="514.62" x2="709.6" y2="486.85" gradientUnits="userSpaceOnUse"><stop offset="0" stop-color="#260202"/><stop offset="1" stop-color="#590b09"/></linearGradient><linearGradient id="linear-gradient-2" x1="888.58" y1="649.84" x2="874.18" y2="597.57" gradientTransform="matrix(1, 0.01, -0.01, 1, 3.38, -1.14)" xlink:href="#linear-gradient"/><linearGradient id="linear-gradient-3" x1="1019.45" y1="580.12" x2="1006.71" y2="533.88" gradientTransform="matrix(0.97, 0.26, -0.26, 0.97, 174.37, -219.67)" xlink:href="#linear-gradient"/><linearGradient id="linear-gradient-4" x1="1191.74" y1="439.64" x2="1181.03" y2="400.78" gradientTransform="translate(240.39 -292.64) rotate(19.64)" xlink:href="#linear-gradient"/></defs><g class="cls-2"><path class="cls-3" d="M709.7,488.7s-4.5-5.38-13-1.33c0,0,8.87-1.27,14.37,8.46,0,0,3-12.07,10.6-12.45C721.68,483.38,715.83,480.67,709.7,488.7Z"/><path class="cls-4" d="M872.4,607.7S864,597.48,848,605c0,0,16.72-2.23,26.9,16.17,0,0,5.84-22.68,20.16-23.26C895,597.88,884.07,592.68,872.4,607.7Z"/><path class="cls-5" d="M1009.36,558.12s-4.93-10.6-20.33-7.71c0,0,14.82,1.76,19.5,19.77,0,0,10-18.15,22.39-15.5C1030.92,554.68,1022.67,547.82,1009.36,558.12Z"/><path class="cls-6" d="M1217.24,484.25s-3.39-9.21-16.49-7.86c0,0,12.29,2.5,15,17.9,0,0,9.62-14.5,19.82-11.42C1235.53,482.87,1229.1,476.55,1217.24,484.25Z"/></g></svg>