<svg id="Layer_1" data-name="Layer 1" xmlns="http://www.w3.org/2000/svg" xmlns:xlink="http://www.w3.org/1999/xlink" viewBox="0 0 1920 1080"><defs><style>.cls-1{fill:none;}.cls-2{clip-path:url(#clip-path);}.cls-3{fill:#841818;}</style><clipPath id="clip-path"><rect class="cls-1" width="1920" height="1080"/></clipPath></defs><g class="cls-2"><path class="cls-3" d="M1676.13,888.18c-133.81-87.13-112-6.22-298.74,15.56S1085.9,633,848.36,701.47c-141.81,40.87-209.54,62.24-507.24-37.35C247.42,632.78,115,681.76.41,726.17V1130H1920V878.08C1859.15,910,1760.8,943.31,1676.13,888.18Z"/><path class="cls-3" d="M1353.4,803.12c-15.41,0-27.9,25.19-27.9,56.25a109.78,109.78,0,0,0,1.23,16.55,26.87,26.87,0,0,0,25.37,22.58v21.17a1.31,1.31,0,0,0,2.61,0V898.5a26.87,26.87,0,0,0,25.37-22.58,109.78,109.78,0,0,0,1.23-16.55C1381.31,828.31,1368.82,803.12,1353.4,803.12Z"/><path class="cls-3" d="M1562.94,782.38c-10.89,0-19.72,17.79-19.72,39.74a78.15,78.15,0,0,0,.87,11.69,19,19,0,0,0,17.93,16v15a.92.92,0,1,0,1.84,0v-15a19,19,0,0,0,17.93-16,76.85,76.85,0,0,0,.87-11.69C1582.66,800.17,1573.83,782.38,1562.94,782.38Z"/><path class="cls-3" d="M67.8,656.52c-9.85,0-17.84,16.1-17.84,36a70.27,70.27,0,0,0,.78,10.58A17.18,17.18,0,0,0,67,717.49V731a.85.85,0,0,0,.84.84.84.84,0,0,0,.83-.84V717.49a17.16,17.16,0,0,0,16.22-14.44,70.24,70.24,0,0,0,.79-10.58C85.64,672.62,77.65,656.52,67.8,656.52Z"/><path class="cls-3" d="M165.05,628.16c-9,0-16.2,14.62-16.2,32.66a64.43,64.43,0,0,0,.71,9.61,15.6,15.6,0,0,0,14.73,13.11v12.29a.76.76,0,1,0,1.52,0V683.54a15.59,15.59,0,0,0,14.73-13.11,64.43,64.43,0,0,0,.71-9.61C181.25,642.78,174,628.16,165.05,628.16Z"/><path class="cls-3" d="M234.2,637.15c-7.32,0-13.25,12-13.25,26.72a52.16,52.16,0,0,0,.58,7.86,12.74,12.74,0,0,0,12.05,10.72v10.06a.63.63,0,0,0,1.25,0V682.45a12.75,12.75,0,0,0,12-10.72,52.16,52.16,0,0,0,.58-7.86C247.46,649.12,241.53,637.15,234.2,637.15Z"/><path class="cls-3" d="M960.32,660.32c-7.32,0-13.25,12-13.25,26.72a52.26,52.26,0,0,0,.58,7.86,12.76,12.76,0,0,0,12.05,10.72v10.06a.62.62,0,0,0,1.24,0V705.62a12.75,12.75,0,0,0,12-10.72,52.23,52.23,0,0,0,.59-7.86C973.58,672.28,967.64,660.32,960.32,660.32Z"/><path class="cls-3" d="M861.77,667.41c-6.55,0-11.86,10.7-11.86,23.91a46.57,46.57,0,0,0,.52,7,11.42,11.42,0,0,0,10.78,9.6v9a.56.56,0,0,0,.56.56.55.55,0,0,0,.55-.56v-9a11.42,11.42,0,0,0,10.79-9.6,46.57,46.57,0,0,0,.52-7C873.63,678.11,868.32,667.41,861.77,667.41Z"/><path class="cls-3" d="M789.16,697.84c-5.11,0-9.25,8.34-9.25,18.63a37.15,37.15,0,0,0,.41,5.48,8.91,8.91,0,0,0,8.4,7.48v7a.44.44,0,0,0,.44.43.43.43,0,0,0,.43-.43v-7A8.9,8.9,0,0,0,798,722a35.84,35.84,0,0,0,.41-5.48C798.4,706.18,794.26,697.84,789.16,697.84Z"/><path class="cls-3" d="M1021.34,690.27c-5.11,0-9.24,8.34-9.24,18.63a37,37,0,0,0,.4,5.48,8.9,8.9,0,0,0,8.41,7.48v7a.43.43,0,1,0,.86,0v-7a8.89,8.89,0,0,0,8.4-7.48,35.65,35.65,0,0,0,.41-5.48C1030.58,698.61,1026.44,690.27,1021.34,690.27Z"/></g></svg>