<svg id="Layer_1" data-name="Layer 1" xmlns="http://www.w3.org/2000/svg" xmlns:xlink="http://www.w3.org/1999/xlink" viewBox="0 0 1920 1080"><defs><style>.cls-1{fill:none;}.cls-2{clip-path:url(#clip-path);}.cls-3{fill:url(#linear-gradient);}.cls-4{fill:#34a853;}.cls-5{fill:#260202;}</style><clipPath id="clip-path"><rect class="cls-1" width="1920" height="1080"/></clipPath><linearGradient id="linear-gradient" x1="951.05" y1="1047.99" x2="1843.55" y2="1047.99" gradientUnits="userSpaceOnUse"><stop offset="0" stop-color="#841818"/><stop offset="1" stop-color="#590b09"/></linearGradient></defs><g class="cls-2"><rect class="cls-3" x="0.41" y="965.98" width="1919.57" height="164.02"/><path class="cls-4" d="M1712.51,943.7a35,35,0,0,0,34.67-29.43,142.64,142.64,0,0,0,1.6-21.51c0-40.38-16.24-73.11-36.27-73.11s-36.28,32.73-36.28,73.11a142.64,142.64,0,0,0,1.6,21.51,35,35,0,0,0,34.68,29.43Z"/><path class="cls-5" d="M1725.64,868.82a1.7,1.7,0,0,0-2.4,0l-9,9V856.11a1.7,1.7,0,1,0-3.4,0v48.11l-15.38-15.38a1.7,1.7,0,0,0-2.41,2.4L1710.8,909v62.11a1.7,1.7,0,1,0,3.4,0v-88.5l.07,0,11.37-11.37A1.68,1.68,0,0,0,1725.64,868.82Z"/><path class="cls-4" d="M1804.41,947.28a30.65,30.65,0,0,0,30.41-25.81,123.94,123.94,0,0,0,1.41-18.86c0-35.41-14.25-64.12-31.82-64.12s-31.81,28.71-31.81,64.12a125.27,125.27,0,0,0,1.4,18.86,30.65,30.65,0,0,0,30.41,25.81Z"/><path class="cls-5" d="M1815.93,881.61a1.48,1.48,0,0,0-2.1,0l-7.93,7.93V870.47a1.49,1.49,0,0,0-3,0v42.19l-13.49-13.49a1.49,1.49,0,0,0-2.11,2.1l15.6,15.61v54.47a1.49,1.49,0,0,0,3,0V893.73l.06,0,10-10A1.48,1.48,0,0,0,1815.93,881.61Z"/><path class="cls-4" d="M1446.76,945.16a33.21,33.21,0,0,0,32.94-27.95,135.24,135.24,0,0,0,1.52-20.43c0-38.36-15.43-69.45-34.46-69.45s-34.45,31.09-34.45,69.45a136.58,136.58,0,0,0,1.51,20.43,33.21,33.21,0,0,0,32.94,27.95Z"/><path class="cls-5" d="M1459.24,874a1.61,1.61,0,0,0-2.28,0l-8.58,8.59V862a1.62,1.62,0,0,0-3.23,0v45.7l-14.62-14.61a1.61,1.61,0,1,0-2.28,2.28l16.9,16.9v59a1.62,1.62,0,1,0,3.23,0V887.16l.06,0,10.8-10.8A1.62,1.62,0,0,0,1459.24,874Z"/><path class="cls-4" d="M1023.55,954.87a25.56,25.56,0,0,0,25.36-21.52,105.77,105.77,0,0,0,1.16-15.73c0-29.53-11.87-53.47-26.52-53.47S997,888.09,997,917.62a104.42,104.42,0,0,0,1.17,15.73,25.55,25.55,0,0,0,25.36,21.52Z"/><path class="cls-5" d="M1033.15,900.11a1.23,1.23,0,0,0-1.75,0l-6.61,6.61v-15.9a1.25,1.25,0,1,0-2.49,0V926l-11.25-11.25a1.24,1.24,0,0,0-1.76,0,1.26,1.26,0,0,0,0,1.76l13,13v45.42a1.25,1.25,0,0,0,2.49,0V910.22s0,0,0,0l8.31-8.31A1.24,1.24,0,0,0,1033.15,900.11Z"/></g></svg>