<svg id="Layer_1" data-name="Layer 1" xmlns="http://www.w3.org/2000/svg" xmlns:xlink="http://www.w3.org/1999/xlink" viewBox="0 0 1920 1080"><defs><style>.cls-1{fill:none;}.cls-2{clip-path:url(#clip-path);}.cls-3{fill:url(#linear-gradient);}.cls-4{fill:url(#linear-gradient-2);}.cls-5{fill:url(#linear-gradient-3);}.cls-6{fill:#34a853;}</style><clipPath id="clip-path"><rect class="cls-1" width="1920" height="1080"/></clipPath><linearGradient id="linear-gradient" x1="475.58" y1="1072.37" x2="1822.49" y2="1072.37" gradientUnits="userSpaceOnUse"><stop offset="0" stop-color="#fffcd4"/><stop offset="0.17" stop-color="#fff6d0"/><stop offset="0.4" stop-color="#ffe4c5"/><stop offset="0.66" stop-color="#ffc7b4"/><stop offset="0.95" stop-color="#ff9e9b"/><stop offset="1" stop-color="#ff9797"/></linearGradient><linearGradient id="linear-gradient-2" x1="548.58" y1="1580.78" x2="1037.15" y2="889.93" gradientUnits="userSpaceOnUse"><stop offset="0" stop-color="#260202"/><stop offset="1" stop-color="#590b09"/></linearGradient><linearGradient id="linear-gradient-3" x1="418.74" y1="1235.18" x2="438.1" y2="1004.2" xlink:href="#linear-gradient-2"/></defs><g class="cls-2"><rect class="cls-3" x="0.41" y="1014.73" width="1919.57" height="115.27"/><path class="cls-4" d="M1920,1067.64c-265.11,2.65-783.37,4.75-1197.13-150.41C424.1,805.2,152.34,822.6.41,867.5V1130H1920Z"/><path class="cls-5" d="M.41,993.83V1130H866.12C552.46,940.83,190.47,963.11.41,993.83Z"/><path class="cls-6" d="M406.25,505.07c-48.6,0-88,79.41-88,177.37a346.29,346.29,0,0,0,3.88,52.17c6.09,39.88,40,69.29,80,71.2v66.76a4.12,4.12,0,1,0,8.24,0V805.81c40-1.91,73.91-31.31,80-71.2a347.63,347.63,0,0,0,3.87-52.17C494.25,584.48,454.85,505.07,406.25,505.07Z"/><path class="cls-6" d="M614.65,580.19c-41.31,0-74.8,67.5-74.8,150.77a294.77,294.77,0,0,0,3.3,44.35c5.18,33.9,34,58.89,68,60.52v56.74a3.51,3.51,0,1,0,7,0V835.83c34-1.63,62.82-26.62,68-60.52a294.77,294.77,0,0,0,3.3-44.35C689.46,647.69,656,580.19,614.65,580.19Z"/></g></svg>