<svg xmlns="http://www.w3.org/2000/svg" xmlns:xlink="http://www.w3.org/1999/xlink" viewBox="0 0 1920 1080"><defs><style>.cls-1{fill:none;}.cls-2{isolation:isolate;}.cls-3{clip-path:url(#clip-path);}.cls-4,.cls-5,.cls-6{mix-blend-mode:overlay;}.cls-4{fill:url(#linear-gradient);}.cls-5{fill:url(#linear-gradient-2);}.cls-6{fill:url(#linear-gradient-3);}</style><clipPath id="clip-path"><rect class="cls-1" width="1920" height="1080"/></clipPath><linearGradient id="linear-gradient" x1="319.09" y1="269.95" x2="319.09" y2="6.34" gradientUnits="userSpaceOnUse"><stop offset="0" stop-color="#fff" stop-opacity="0"/><stop offset="0.09" stop-color="#e4eefd" stop-opacity="0.14"/><stop offset="0.28" stop-color="#b4cefb" stop-opacity="0.4"/><stop offset="0.46" stop-color="#8bb4f8" stop-opacity="0.61"/><stop offset="0.63" stop-color="#6ba0f6" stop-opacity="0.78"/><stop offset="0.78" stop-color="#5591f5" stop-opacity="0.9"/><stop offset="0.91" stop-color="#4788f4" stop-opacity="0.97"/><stop offset="1" stop-color="#4285f4"/></linearGradient><linearGradient id="linear-gradient-2" x1="1351.46" y1="310.16" x2="2484.48" y2="310.16" xlink:href="#linear-gradient"/><linearGradient id="linear-gradient-3" x1="1451.38" y1="169.73" x2="1451.38" y2="1.66" xlink:href="#linear-gradient"/></defs><g class="cls-2"><g id="Layer_1" data-name="Layer 1"><g class="cls-3"><path class="cls-4" d="M637.78,251.15H.41V148.36c38.64-24.1,94.45-47.24,134.81-14.94,67.9,54.33,107.14-22.64,153.94,15.1s81.5,83,176.57,48.3S637.78,251.15,637.78,251.15Z"/><path class="cls-5" d="M1920,263.33c-18.87-6.75-38.13-6.53-54,8.69-49.79,47.72-163.89-51.86-211.61,12.45s-290.45,2.07-302.89,76.76H1920Z"/><path class="cls-6" d="M1412,116.77c54.47,26.59,98.71-30.95,133.29,7.78s114.28.52,157.15,47.54H1200.35S1316.71,70.26,1412,116.77Z"/></g></g></g></svg>